<?xml version="1.0" encoding="UTF-8" standalone="no"?>
<!DOCTYPE svg PUBLIC "-//W3C//DTD SVG 1.1//EN"
 "http://www.w3.org/Graphics/SVG/1.1/DTD/svg11.dtd">
<!-- Generated by graphviz version 12.2.1 (20241206.2353)
 -->
<!-- Title: dependency&#45;cruiser output Pages: 1 -->
<svg width="623pt" height="1318pt"
 viewBox="0.00 0.00 623.00 1318.00" xmlns="http://www.w3.org/2000/svg" xmlns:xlink="http://www.w3.org/1999/xlink">
<g id="graph0" class="graph" transform="scale(1 1) rotate(0) translate(4 1314)">
<title>dependency&#45;cruiser output</title>
<polygon fill="white" stroke="none" points="-4,4 -4,-1314 619,-1314 619,4 -4,4"/>
<g id="clust1" class="cluster">
<title>cluster_src</title>
<path fill="#ffffff" stroke="black" stroke-width="2" d="M13.75,-8C13.75,-8 595,-8 595,-8 601,-8 607,-14 607,-20 607,-20 607,-1290 607,-1290 607,-1296 601,-1302 595,-1302 595,-1302 13.75,-1302 13.75,-1302 7.75,-1302 1.75,-1296 1.75,-1290 1.75,-1290 1.75,-20 1.75,-20 1.75,-14 7.75,-8 13.75,-8"/>
<text text-anchor="middle" x="304.38" y="-1289.45" font-family="Helvetica,sans-Serif" font-weight="bold" font-size="9.00">src</text>
</g>
<g id="clust2" class="cluster">
<title>cluster_src/actions</title>
<path fill="#ffffff" stroke="black" stroke-width="2" d="M439.88,-988C439.88,-988 485.88,-988 485.88,-988 491.88,-988 497.88,-994 497.88,-1000 497.88,-1000 497.88,-1028 497.88,-1028 497.88,-1034 491.88,-1040 485.88,-1040 485.88,-1040 439.88,-1040 439.88,-1040 433.88,-1040 427.88,-1034 427.88,-1028 427.88,-1028 427.88,-1000 427.88,-1000 427.88,-994 433.88,-988 439.88,-988"/>
<text text-anchor="middle" x="462.88" y="-1027.45" font-family="Helvetica,sans-Serif" font-weight="bold" font-size="9.00">actions</text>
</g>
<g id="clust3" class="cluster">
<title>cluster_src/app</title>
<path fill="#ffffff" stroke="black" stroke-width="2" d="M21.75,-16C21.75,-16 509,-16 509,-16 515,-16 521,-22 521,-28 521,-28 521,-780 521,-780 521,-786 515,-792 509,-792 509,-792 21.75,-792 21.75,-792 15.75,-792 9.75,-786 9.75,-780 9.75,-780 9.75,-28 9.75,-28 9.75,-22 15.75,-16 21.75,-16"/>
<text text-anchor="middle" x="265.38" y="-779.45" font-family="Helvetica,sans-Serif" font-weight="bold" font-size="9.00">app</text>
</g>
<g id="clust4" class="cluster">
<title>cluster_src/app/(dashboard)</title>
<path fill="#ffffff" stroke="black" stroke-width="2" d="M29.75,-174C29.75,-174 121.25,-174 121.25,-174 127.25,-174 133.25,-180 133.25,-186 133.25,-186 133.25,-754 133.25,-754 133.25,-760 127.25,-766 121.25,-766 121.25,-766 29.75,-766 29.75,-766 23.75,-766 17.75,-760 17.75,-754 17.75,-754 17.75,-186 17.75,-186 17.75,-180 23.75,-174 29.75,-174"/>
<text text-anchor="middle" x="75.5" y="-753.45" font-family="Helvetica,sans-Serif" font-weight="bold" font-size="9.00">(dashboard)</text>
</g>
<g id="clust5" class="cluster">
<title>cluster_src/app/(dashboard)/discover</title>
<path fill="#ffffff" stroke="black" stroke-width="2" d="M51.88,-182C51.88,-182 98.12,-182 98.12,-182 104.12,-182 110.12,-188 110.12,-194 110.12,-194 110.12,-252 110.12,-252 110.12,-258 104.12,-264 98.12,-264 98.12,-264 51.88,-264 51.88,-264 45.87,-264 39.88,-258 39.88,-252 39.88,-252 39.88,-194 39.88,-194 39.88,-188 45.88,-182 51.88,-182"/>
<text text-anchor="middle" x="75" y="-251.45" font-family="Helvetica,sans-Serif" font-weight="bold" font-size="9.00">discover</text>
</g>
<g id="clust6" class="cluster">
<title>cluster_src/app/(dashboard)/profile</title>
<path fill="#ffffff" stroke="black" stroke-width="2" d="M37.75,-272C37.75,-272 113.25,-272 113.25,-272 119.25,-272 125.25,-278 125.25,-284 125.25,-284 125.25,-522 125.25,-522 125.25,-528 119.25,-534 113.25,-534 113.25,-534 37.75,-534 37.75,-534 31.75,-534 25.75,-528 25.75,-522 25.75,-522 25.75,-284 25.75,-284 25.75,-278 31.75,-272 37.75,-272"/>
<text text-anchor="middle" x="75.5" y="-521.45" font-family="Helvetica,sans-Serif" font-weight="bold" font-size="9.00">profile</text>
</g>
<g id="clust7" class="cluster">
<title>cluster_src/app/(dashboard)/profile/account</title>
<path fill="#ffffff" stroke="black" stroke-width="2" d="M52,-280C52,-280 98,-280 98,-280 104,-280 110,-286 110,-292 110,-292 110,-320 110,-320 110,-326 104,-332 98,-332 98,-332 52,-332 52,-332 46,-332 40,-326 40,-320 40,-320 40,-292 40,-292 40,-286 46,-280 52,-280"/>
<text text-anchor="middle" x="75" y="-319.45" font-family="Helvetica,sans-Serif" font-weight="bold" font-size="9.00">account</text>
</g>
<g id="clust8" class="cluster">
<title>cluster_src/app/(dashboard)/profile/manage&#45;history</title>
<path fill="#ffffff" stroke="black" stroke-width="2" d="M45.75,-340C45.75,-340 105.25,-340 105.25,-340 111.25,-340 117.25,-346 117.25,-352 117.25,-352 117.25,-380 117.25,-380 117.25,-386 111.25,-392 105.25,-392 105.25,-392 45.75,-392 45.75,-392 39.75,-392 33.75,-386 33.75,-380 33.75,-380 33.75,-352 33.75,-352 33.75,-346 39.75,-340 45.75,-340"/>
<text text-anchor="middle" x="75.5" y="-379.45" font-family="Helvetica,sans-Serif" font-weight="bold" font-size="9.00">manage&#45;history</text>
</g>
<g id="clust9" class="cluster">
<title>cluster_src/app/(dashboard)/profile/voice&#45;settings</title>
<path fill="#ffffff" stroke="black" stroke-width="2" d="M49.12,-400C49.12,-400 101.88,-400 101.88,-400 107.88,-400 113.88,-406 113.88,-412 113.88,-412 113.88,-440 113.88,-440 113.88,-446 107.88,-452 101.88,-452 101.88,-452 49.12,-452 49.12,-452 43.12,-452 37.12,-446 37.12,-440 37.12,-440 37.12,-412 37.12,-412 37.12,-406 43.12,-400 49.12,-400"/>
<text text-anchor="middle" x="75.5" y="-439.45" font-family="Helvetica,sans-Serif" font-weight="bold" font-size="9.00">voice&#45;settings</text>
</g>
<g id="clust10" class="cluster">
<title>cluster_src/app/(dashboard)/talk</title>
<path fill="#ffffff" stroke="black" stroke-width="2" d="M52,-542C52,-542 98,-542 98,-542 104,-542 110,-548 110,-554 110,-554 110,-582 110,-582 110,-588 104,-594 98,-594 98,-594 52,-594 52,-594 46,-594 40,-588 40,-582 40,-582 40,-554 40,-554 40,-548 46,-542 52,-542"/>
<text text-anchor="middle" x="75" y="-581.45" font-family="Helvetica,sans-Serif" font-weight="bold" font-size="9.00">talk</text>
</g>
<g id="clust11" class="cluster">
<title>cluster_src/app/(dashboard)/threads</title>
<path fill="#ffffff" stroke="black" stroke-width="2" d="M51.88,-602C51.88,-602 98.12,-602 98.12,-602 104.12,-602 110.12,-608 110.12,-614 110.12,-614 110.12,-672 110.12,-672 110.12,-678 104.12,-684 98.12,-684 98.12,-684 51.88,-684 51.88,-684 45.87,-684 39.88,-678 39.88,-672 39.88,-672 39.88,-614 39.88,-614 39.88,-608 45.88,-602 51.88,-602"/>
<text text-anchor="middle" x="75" y="-671.45" font-family="Helvetica,sans-Serif" font-weight="bold" font-size="9.00">threads</text>
</g>
<g id="clust12" class="cluster">
<title>cluster_src/app/onboarding</title>
<path fill="#ffffff" stroke="black" stroke-width="2" d="M52,-24C52,-24 501,-24 501,-24 507,-24 513,-30 513,-36 513,-36 513,-128 513,-128 513,-134 507,-140 501,-140 501,-140 52,-140 52,-140 46,-140 40,-134 40,-128 40,-128 40,-36 40,-36 40,-30 46,-24 52,-24"/>
<text text-anchor="middle" x="276.5" y="-127.45" font-family="Helvetica,sans-Serif" font-weight="bold" font-size="9.00">onboarding</text>
</g>
<g id="clust13" class="cluster">
<title>cluster_src/app/onboarding/components</title>
<path fill="#ffffff" stroke="black" stroke-width="2" d="M194,-32C194,-32 272.5,-32 272.5,-32 278.5,-32 284.5,-38 284.5,-44 284.5,-44 284.5,-102 284.5,-102 284.5,-108 278.5,-114 272.5,-114 272.5,-114 194,-114 194,-114 188,-114 182,-108 182,-102 182,-102 182,-44 182,-44 182,-38 188,-32 194,-32"/>
<text text-anchor="middle" x="233.25" y="-101.45" font-family="Helvetica,sans-Serif" font-weight="bold" font-size="9.00">components</text>
</g>
<g id="clust14" class="cluster">
<title>cluster_src/components</title>
<path fill="#ffffff" stroke="black" stroke-width="2" d="M189.12,-1048C189.12,-1048 506.75,-1048 506.75,-1048 512.75,-1048 518.75,-1054 518.75,-1060 518.75,-1060 518.75,-1264 518.75,-1264 518.75,-1270 512.75,-1276 506.75,-1276 506.75,-1276 189.12,-1276 189.12,-1276 183.12,-1276 177.12,-1270 177.12,-1264 177.12,-1264 177.12,-1060 177.12,-1060 177.12,-1054 183.12,-1048 189.12,-1048"/>
<text text-anchor="middle" x="347.94" y="-1263.45" font-family="Helvetica,sans-Serif" font-weight="bold" font-size="9.00">components</text>
</g>
<g id="clust15" class="cluster">
<title>cluster_src/components/profile</title>
<path fill="#ffffff" stroke="black" stroke-width="2" d="M313.5,-1082C313.5,-1082 378.5,-1082 378.5,-1082 384.5,-1082 390.5,-1088 390.5,-1094 390.5,-1094 390.5,-1122 390.5,-1122 390.5,-1128 384.5,-1134 378.5,-1134 378.5,-1134 313.5,-1134 313.5,-1134 307.5,-1134 301.5,-1128 301.5,-1122 301.5,-1122 301.5,-1094 301.5,-1094 301.5,-1088 307.5,-1082 313.5,-1082"/>
<text text-anchor="middle" x="346" y="-1121.45" font-family="Helvetica,sans-Serif" font-weight="bold" font-size="9.00">profile</text>
</g>
<g id="clust16" class="cluster">
<title>cluster_src/components/sidebar</title>
<path fill="#ffffff" stroke="black" stroke-width="2" d="M317.62,-1198C317.62,-1198 374.38,-1198 374.38,-1198 380.38,-1198 386.38,-1204 386.38,-1210 386.38,-1210 386.38,-1238 386.38,-1238 386.38,-1244 380.38,-1250 374.38,-1250 374.38,-1250 317.62,-1250 317.62,-1250 311.62,-1250 305.62,-1244 305.62,-1238 305.62,-1238 305.62,-1210 305.62,-1210 305.62,-1204 311.62,-1198 317.62,-1198"/>
<text text-anchor="middle" x="346" y="-1237.45" font-family="Helvetica,sans-Serif" font-weight="bold" font-size="9.00">sidebar</text>
</g>
<g id="clust17" class="cluster">
<title>cluster_src/components/ui</title>
<path fill="#ffffff" stroke="black" stroke-width="2" d="M427,-1166C427,-1166 498.75,-1166 498.75,-1166 504.75,-1166 510.75,-1172 510.75,-1178 510.75,-1178 510.75,-1236 510.75,-1236 510.75,-1242 504.75,-1248 498.75,-1248 498.75,-1248 427,-1248 427,-1248 421,-1248 415,-1242 415,-1236 415,-1236 415,-1178 415,-1178 415,-1172 421,-1166 427,-1166"/>
<text text-anchor="middle" x="462.88" y="-1235.45" font-family="Helvetica,sans-Serif" font-weight="bold" font-size="9.00">ui</text>
</g>
<g id="clust18" class="cluster">
<title>cluster_src/data</title>
<path fill="#ffffff" stroke="black" stroke-width="2" d="M304.5,-834C304.5,-834 387.5,-834 387.5,-834 393.5,-834 399.5,-840 399.5,-846 399.5,-846 399.5,-874 399.5,-874 399.5,-880 393.5,-886 387.5,-886 387.5,-886 304.5,-886 304.5,-886 298.5,-886 292.5,-880 292.5,-874 292.5,-874 292.5,-846 292.5,-846 292.5,-840 298.5,-834 304.5,-834"/>
<text text-anchor="middle" x="346" y="-873.45" font-family="Helvetica,sans-Serif" font-weight="bold" font-size="9.00">data</text>
</g>
<g id="clust19" class="cluster">
<title>cluster_src/hooks</title>
<path fill="#ffffff" stroke="black" stroke-width="2" d="M419.5,-800C419.5,-800 506.25,-800 506.25,-800 512.25,-800 518.25,-806 518.25,-812 518.25,-812 518.25,-840 518.25,-840 518.25,-846 512.25,-852 506.25,-852 506.25,-852 419.5,-852 419.5,-852 413.5,-852 407.5,-846 407.5,-840 407.5,-840 407.5,-812 407.5,-812 407.5,-806 413.5,-800 419.5,-800"/>
<text text-anchor="middle" x="462.88" y="-839.45" font-family="Helvetica,sans-Serif" font-weight="bold" font-size="9.00">hooks</text>
</g>
<g id="clust20" class="cluster">
<title>cluster_src/lib</title>
<path fill="#ffffff" stroke="black" stroke-width="2" d="M541,-1196C541,-1196 587,-1196 587,-1196 593,-1196 599,-1202 599,-1208 599,-1208 599,-1236 599,-1236 599,-1242 593,-1248 587,-1248 587,-1248 541,-1248 541,-1248 535,-1248 529,-1242 529,-1236 529,-1236 529,-1208 529,-1208 529,-1202 535,-1196 541,-1196"/>
<text text-anchor="middle" x="564" y="-1235.45" font-family="Helvetica,sans-Serif" font-weight="bold" font-size="9.00">lib</text>
</g>
<g id="clust21" class="cluster">
<title>cluster_src/store</title>
<path fill="#ffffff" stroke="black" stroke-width="2" d="M433.75,-860C433.75,-860 492,-860 492,-860 498,-860 504,-866 504,-872 504,-872 504,-930 504,-930 504,-936 498,-942 492,-942 492,-942 433.75,-942 433.75,-942 427.75,-942 421.75,-936 421.75,-930 421.75,-930 421.75,-872 421.75,-872 421.75,-866 427.75,-860 433.75,-860"/>
<text text-anchor="middle" x="462.88" y="-929.45" font-family="Helvetica,sans-Serif" font-weight="bold" font-size="9.00">store</text>
</g>
<g id="clust22" class="cluster">
<title>cluster_src/types</title>
<path fill="#ffffff" stroke="black" stroke-width="2" d="M541,-942C541,-942 587,-942 587,-942 593,-942 599,-948 599,-954 599,-954 599,-982 599,-982 599,-988 593,-994 587,-994 587,-994 541,-994 541,-994 535,-994 529,-988 529,-982 529,-982 529,-954 529,-954 529,-948 535,-942 541,-942"/>
<text text-anchor="middle" x="564" y="-981.45" font-family="Helvetica,sans-Serif" font-weight="bold" font-size="9.00">types</text>
</g>
<!-- src/actions/chat.ts -->
<g id="node1" class="node">
<title>src/actions/chat.ts</title>
<g id="a_node1"><a xlink:href="src/actions/chat.ts" xlink:title="chat.ts">
<path fill="#ddfeff" stroke="black" d="M483.96,-1013.88C483.96,-1013.88 441.79,-1013.88 441.79,-1013.88 438.83,-1013.88 435.88,-1010.92 435.88,-1007.96 435.88,-1007.96 435.88,-1002.04 435.88,-1002.04 435.88,-999.08 438.83,-996.12 441.79,-996.12 441.79,-996.12 483.96,-996.12 483.96,-996.12 486.92,-996.12 489.88,-999.08 489.88,-1002.04 489.88,-1002.04 489.88,-1007.96 489.88,-1007.96 489.88,-1010.92 486.92,-1013.88 483.96,-1013.88"/>
<text text-anchor="start" x="449.75" y="-1001.33" font-family="Helvetica,sans-Serif" font-size="9.00">chat.ts</text>
</a>
</g>
</g>
<!-- src/env.ts -->
<g id="node2" class="node">
<title>src/env.ts</title>
<g id="a_node2"><a xlink:href="src/env.ts" xlink:title="env.ts">
<path fill="#ddfeff" stroke="black" d="M585.08,-1019.88C585.08,-1019.88 542.92,-1019.88 542.92,-1019.88 539.96,-1019.88 537,-1016.92 537,-1013.96 537,-1013.96 537,-1008.04 537,-1008.04 537,-1005.08 539.96,-1002.12 542.92,-1002.12 542.92,-1002.12 585.08,-1002.12 585.08,-1002.12 588.04,-1002.12 591,-1005.08 591,-1008.04 591,-1008.04 591,-1013.96 591,-1013.96 591,-1016.92 588.04,-1019.88 585.08,-1019.88"/>
<text text-anchor="start" x="552" y="-1007.33" font-family="Helvetica,sans-Serif" font-size="9.00">env.ts</text>
</a>
</g>
</g>
<!-- src/actions/chat.ts&#45;&gt;src/env.ts -->
<g id="edge1" class="edge">
<title>src/actions/chat.ts&#45;&gt;src/env.ts</title>
<path fill="none" stroke="#000000" stroke-width="2" stroke-opacity="0.200000" d="M490.18,-1006.59C501.72,-1007.29 515.43,-1008.12 527.83,-1008.87"/>
<polygon fill="#000000" fill-opacity="0.200000" stroke="#000000" stroke-width="2" stroke-opacity="0.200000" points="527.44,-1010.95 533.55,-1009.22 527.69,-1006.76 527.44,-1010.95"/>
</g>
<!-- src/types/index.ts -->
<g id="node3" class="node">
<title>src/types/index.ts</title>
<g id="a_node3"><a xlink:href="src/types/index.ts" xlink:title="index.ts">
<path fill="#ddfeff" stroke="black" d="M585.08,-967.88C585.08,-967.88 542.92,-967.88 542.92,-967.88 539.96,-967.88 537,-964.92 537,-961.96 537,-961.96 537,-956.04 537,-956.04 537,-953.08 539.96,-950.12 542.92,-950.12 542.92,-950.12 585.08,-950.12 585.08,-950.12 588.04,-950.12 591,-953.08 591,-956.04 591,-956.04 591,-961.96 591,-961.96 591,-964.92 588.04,-967.88 585.08,-967.88"/>
<text text-anchor="start" x="548.25" y="-955.33" font-family="Helvetica,sans-Serif" font-size="9.00">index.ts</text>
</a>
</g>
</g>
<!-- src/actions/chat.ts&#45;&gt;src/types/index.ts -->
<g id="edge2" class="edge">
<title>src/actions/chat.ts&#45;&gt;src/types/index.ts</title>
<path fill="none" stroke="#000000" stroke-width="2" stroke-opacity="0.200000" d="M490.24,-998.36C500.52,-994.9 511.98,-989.93 521,-983 524.6,-980.24 524.6,-977.5 529.59,-972.78"/>
<polygon fill="#000000" fill-opacity="0.200000" stroke="#000000" stroke-width="2" stroke-opacity="0.200000" points="530.74,-974.54 534.17,-969.19 528.15,-971.23 530.74,-974.54"/>
</g>
<!-- src/app/(dashboard)/discover/layout.tsx -->
<g id="node4" class="node">
<title>src/app/(dashboard)/discover/layout.tsx</title>
<g id="a_node4"><a xlink:href="src/app/(dashboard)/discover/layout.tsx" xlink:title="layout.tsx">
<path fill="#bbfeff" stroke="black" d="M96.21,-207.88C96.21,-207.88 53.79,-207.88 53.79,-207.88 50.83,-207.88 47.88,-204.92 47.88,-201.96 47.88,-201.96 47.88,-196.04 47.88,-196.04 47.88,-193.08 50.83,-190.12 53.79,-190.12 53.79,-190.12 96.21,-190.12 96.21,-190.12 99.17,-190.12 102.12,-193.08 102.12,-196.04 102.12,-196.04 102.12,-201.96 102.12,-201.96 102.12,-204.92 99.17,-207.88 96.21,-207.88"/>
<text text-anchor="start" x="55.88" y="-195.32" font-family="Helvetica,sans-Serif" font-size="9.00">layout.tsx</text>
</a>
</g>
</g>
<!-- src/components/discover&#45;section.tsx -->
<g id="node5" class="node">
<title>src/components/discover&#45;section.tsx</title>
<g id="a_node5"><a xlink:href="src/components/discover-section.tsx" xlink:title="discover&#45;section.tsx">
<path fill="#bbfeff" stroke="black" d="M275.46,-1103.88C275.46,-1103.88 191.04,-1103.88 191.04,-1103.88 188.08,-1103.88 185.12,-1100.92 185.12,-1097.96 185.12,-1097.96 185.12,-1092.04 185.12,-1092.04 185.12,-1089.08 188.08,-1086.12 191.04,-1086.12 191.04,-1086.12 275.46,-1086.12 275.46,-1086.12 278.42,-1086.12 281.38,-1089.08 281.38,-1092.04 281.38,-1092.04 281.38,-1097.96 281.38,-1097.96 281.38,-1100.92 278.42,-1103.88 275.46,-1103.88"/>
<text text-anchor="start" x="193.12" y="-1091.33" font-family="Helvetica,sans-Serif" font-size="9.00">discover&#45;section.tsx</text>
</a>
</g>
</g>
<!-- src/app/(dashboard)/discover/layout.tsx&#45;&gt;src/components/discover&#45;section.tsx -->
<g id="edge3" class="edge">
<title>src/app/(dashboard)/discover/layout.tsx&#45;&gt;src/components/discover&#45;section.tsx</title>
<path fill="none" stroke="#000000" stroke-width="2" stroke-opacity="0.200000" d="M102.48,-199.34C113.7,-200.94 125.86,-204.91 133.25,-214 254.8,-363.52 56.28,-929.91 177.12,-1080 177.54,-1080.52 177.98,-1081.03 178.43,-1081.51"/>
<polygon fill="#000000" fill-opacity="0.200000" stroke="#000000" stroke-width="2" stroke-opacity="0.200000" points="176.75,-1082.85 182.71,-1085.04 179.42,-1079.61 176.75,-1082.85"/>
</g>
<!-- src/store/user&#45;store.ts -->
<g id="node30" class="node">
<title>src/store/user&#45;store.ts</title>
<g id="a_node30"><a xlink:href="src/store/user-store.ts" xlink:title="user&#45;store.ts">
<path fill="#ddfeff" stroke="black" d="M490.08,-885.88C490.08,-885.88 435.67,-885.88 435.67,-885.88 432.71,-885.88 429.75,-882.92 429.75,-879.96 429.75,-879.96 429.75,-874.04 429.75,-874.04 429.75,-871.08 432.71,-868.12 435.67,-868.12 435.67,-868.12 490.08,-868.12 490.08,-868.12 493.04,-868.12 496,-871.08 496,-874.04 496,-874.04 496,-879.96 496,-879.96 496,-882.92 493.04,-885.88 490.08,-885.88"/>
<text text-anchor="start" x="437.75" y="-873.33" font-family="Helvetica,sans-Serif" font-size="9.00">user&#45;store.ts</text>
</a>
</g>
</g>
<!-- src/components/discover&#45;section.tsx&#45;&gt;src/store/user&#45;store.ts -->
<g id="edge30" class="edge">
<title>src/components/discover&#45;section.tsx&#45;&gt;src/store/user&#45;store.ts</title>
<path fill="none" stroke="#000000" stroke-width="2" stroke-opacity="0.200000" d="M278.21,-1085.91C280.57,-1084.25 282.7,-1082.29 284.5,-1080 295.55,-1065.91 280.6,-932.38 292.5,-919 324.55,-882.97 357.31,-924.35 399.5,-901 404.18,-898.41 402.96,-894.83 407.5,-892 411.61,-889.45 416.15,-887.32 420.81,-885.55"/>
<polygon fill="#000000" fill-opacity="0.200000" stroke="#000000" stroke-width="2" stroke-opacity="0.200000" points="421.36,-887.58 426.39,-883.69 420.03,-883.6 421.36,-887.58"/>
</g>
<!-- src/components/masonry&#45;layout.tsx -->
<g id="node35" class="node">
<title>src/components/masonry&#45;layout.tsx</title>
<g id="a_node35"><a xlink:href="src/components/masonry-layout.tsx" xlink:title="masonry&#45;layout.tsx">
<path fill="#bbfeff" stroke="black" d="M386.33,-1073.88C386.33,-1073.88 305.67,-1073.88 305.67,-1073.88 302.71,-1073.88 299.75,-1070.92 299.75,-1067.96 299.75,-1067.96 299.75,-1062.04 299.75,-1062.04 299.75,-1059.08 302.71,-1056.12 305.67,-1056.12 305.67,-1056.12 386.33,-1056.12 386.33,-1056.12 389.29,-1056.12 392.25,-1059.08 392.25,-1062.04 392.25,-1062.04 392.25,-1067.96 392.25,-1067.96 392.25,-1070.92 389.29,-1073.88 386.33,-1073.88"/>
<text text-anchor="start" x="307.75" y="-1061.33" font-family="Helvetica,sans-Serif" font-size="9.00">masonry&#45;layout.tsx</text>
</a>
</g>
</g>
<!-- src/components/discover&#45;section.tsx&#45;&gt;src/components/masonry&#45;layout.tsx -->
<g id="edge27" class="edge">
<title>src/components/discover&#45;section.tsx&#45;&gt;src/components/masonry&#45;layout.tsx</title>
<path fill="none" stroke="#000000" stroke-width="2" stroke-opacity="0.200000" d="M268.12,-1085.65C276.11,-1083.46 284.6,-1081.14 292.5,-1079 295.41,-1078.21 298.41,-1077.4 301.44,-1076.59"/>
<polygon fill="#000000" fill-opacity="0.200000" stroke="#000000" stroke-width="2" stroke-opacity="0.200000" points="301.8,-1078.67 307.05,-1075.09 300.71,-1074.61 301.8,-1078.67"/>
</g>
<!-- src/data/discover&#45;data.json -->
<g id="node36" class="node">
<title>src/data/discover&#45;data.json</title>
<g id="a_node36"><a xlink:href="src/data/discover-data.json" xlink:title="discover&#45;data.json">
<path fill="#ffee44" stroke="black" d="M385.58,-859.88C385.58,-859.88 306.42,-859.88 306.42,-859.88 303.46,-859.88 300.5,-856.92 300.5,-853.96 300.5,-853.96 300.5,-848.04 300.5,-848.04 300.5,-845.08 303.46,-842.12 306.42,-842.12 306.42,-842.12 385.58,-842.12 385.58,-842.12 388.54,-842.12 391.5,-845.08 391.5,-848.04 391.5,-848.04 391.5,-853.96 391.5,-853.96 391.5,-856.92 388.54,-859.88 385.58,-859.88"/>
<text text-anchor="start" x="308.5" y="-847.33" font-family="Helvetica,sans-Serif" font-size="9.00">discover&#45;data.json</text>
</a>
</g>
</g>
<!-- src/components/discover&#45;section.tsx&#45;&gt;src/data/discover&#45;data.json -->
<g id="edge28" class="edge">
<title>src/components/discover&#45;section.tsx&#45;&gt;src/data/discover&#45;data.json</title>
<path fill="none" stroke="#000000" stroke-width="2" stroke-opacity="0.200000" d="M278.22,-1085.92C280.58,-1084.25 282.71,-1082.3 284.5,-1080 296.48,-1064.66 284.77,-922.86 292.5,-905 299.3,-889.3 312.86,-875.54 324.5,-865.84"/>
<polygon fill="#000000" fill-opacity="0.200000" stroke="#000000" stroke-width="2" stroke-opacity="0.200000" points="325.65,-867.61 329.05,-862.23 323.04,-864.32 325.65,-867.61"/>
</g>
<!-- src/lib/utils.ts -->
<g id="node37" class="node">
<title>src/lib/utils.ts</title>
<g id="a_node37"><a xlink:href="src/lib/utils.ts" xlink:title="utils.ts">
<path fill="#ddfeff" stroke="black" d="M585.08,-1221.88C585.08,-1221.88 542.92,-1221.88 542.92,-1221.88 539.96,-1221.88 537,-1218.92 537,-1215.96 537,-1215.96 537,-1210.04 537,-1210.04 537,-1207.08 539.96,-1204.12 542.92,-1204.12 542.92,-1204.12 585.08,-1204.12 585.08,-1204.12 588.04,-1204.12 591,-1207.08 591,-1210.04 591,-1210.04 591,-1215.96 591,-1215.96 591,-1218.92 588.04,-1221.88 585.08,-1221.88"/>
<text text-anchor="start" x="551.25" y="-1209.33" font-family="Helvetica,sans-Serif" font-size="9.00">utils.ts</text>
</a>
</g>
</g>
<!-- src/components/discover&#45;section.tsx&#45;&gt;src/lib/utils.ts -->
<g id="edge29" class="edge">
<title>src/components/discover&#45;section.tsx&#45;&gt;src/lib/utils.ts</title>
<path fill="none" stroke="#000000" stroke-width="2" stroke-opacity="0.200000" d="M278.19,-1104.1C280.56,-1105.76 282.69,-1107.71 284.5,-1110 294.36,-1122.49 280.94,-1242.07 292.5,-1253 298.35,-1258.53 513.83,-1253.83 521,-1251 532.58,-1246.43 542.97,-1237.09 550.52,-1228.82"/>
<polygon fill="#000000" fill-opacity="0.200000" stroke="#000000" stroke-width="2" stroke-opacity="0.200000" points="551.88,-1230.46 554.19,-1224.54 548.69,-1227.73 551.88,-1230.46"/>
</g>
<!-- src/app/(dashboard)/discover/page.tsx -->
<g id="node6" class="node">
<title>src/app/(dashboard)/discover/page.tsx</title>
<g id="a_node6"><a xlink:href="src/app/(dashboard)/discover/page.tsx" xlink:title="page.tsx">
<path fill="#bbfeff" stroke="black" d="M96.08,-237.88C96.08,-237.88 53.92,-237.88 53.92,-237.88 50.96,-237.88 48,-234.92 48,-231.96 48,-231.96 48,-226.04 48,-226.04 48,-223.08 50.96,-220.12 53.92,-220.12 53.92,-220.12 96.08,-220.12 96.08,-220.12 99.04,-220.12 102,-223.08 102,-226.04 102,-226.04 102,-231.96 102,-231.96 102,-234.92 99.04,-237.88 96.08,-237.88"/>
<text text-anchor="start" x="57.75" y="-225.32" font-family="Helvetica,sans-Serif" font-size="9.00">page.tsx</text>
</a>
</g>
</g>
<!-- src/components/chat&#45;interface.tsx -->
<g id="node7" class="node">
<title>src/components/chat&#45;interface.tsx</title>
<g id="a_node7"><a xlink:href="src/components/chat-interface.tsx" xlink:title="chat&#45;interface.tsx">
<path fill="#bbfeff" stroke="black" d="M269.83,-1163.88C269.83,-1163.88 196.67,-1163.88 196.67,-1163.88 193.71,-1163.88 190.75,-1160.92 190.75,-1157.96 190.75,-1157.96 190.75,-1152.04 190.75,-1152.04 190.75,-1149.08 193.71,-1146.12 196.67,-1146.12 196.67,-1146.12 269.83,-1146.12 269.83,-1146.12 272.79,-1146.12 275.75,-1149.08 275.75,-1152.04 275.75,-1152.04 275.75,-1157.96 275.75,-1157.96 275.75,-1160.92 272.79,-1163.88 269.83,-1163.88"/>
<text text-anchor="start" x="198.75" y="-1151.33" font-family="Helvetica,sans-Serif" font-size="9.00">chat&#45;interface.tsx</text>
</a>
</g>
</g>
<!-- src/app/(dashboard)/discover/page.tsx&#45;&gt;src/components/chat&#45;interface.tsx -->
<g id="edge4" class="edge">
<title>src/app/(dashboard)/discover/page.tsx&#45;&gt;src/components/chat&#45;interface.tsx</title>
<path fill="none" stroke="#000000" stroke-width="2" stroke-opacity="0.200000" d="M93.4,-238.25C106.9,-246.46 124.69,-259.82 133.25,-277 176.04,-362.95 116.91,-1065.22 177.12,-1140 178.76,-1142.03 180.64,-1143.8 182.69,-1145.34"/>
<polygon fill="#000000" fill-opacity="0.200000" stroke="#000000" stroke-width="2" stroke-opacity="0.200000" points="181.41,-1147.02 187.65,-1148.23 183.53,-1143.4 181.41,-1147.02"/>
</g>
<!-- src/components/chat&#45;interface.tsx&#45;&gt;src/types/index.ts -->
<g id="edge25" class="edge">
<title>src/components/chat&#45;interface.tsx&#45;&gt;src/types/index.ts</title>
<path fill="none" stroke="#000000" stroke-width="2" stroke-opacity="0.200000" d="M275.95,-1147.4C279.21,-1145.44 282.15,-1143.01 284.5,-1140 296.75,-1124.31 278.16,-974.81 292.5,-961 309.05,-945.06 458.39,-952.32 527.81,-956.63"/>
<polygon fill="#000000" fill-opacity="0.200000" stroke="#000000" stroke-width="2" stroke-opacity="0.200000" points="527.52,-958.71 533.64,-957 527.79,-954.52 527.52,-958.71"/>
</g>
<!-- src/components/chat&#45;input.tsx -->
<g id="node31" class="node">
<title>src/components/chat&#45;input.tsx</title>
<g id="a_node31"><a xlink:href="src/components/chat-input.tsx" xlink:title="chat&#45;input.tsx">
<path fill="#bbfeff" stroke="black" d="M375.08,-1159.88C375.08,-1159.88 316.92,-1159.88 316.92,-1159.88 313.96,-1159.88 311,-1156.92 311,-1153.96 311,-1153.96 311,-1148.04 311,-1148.04 311,-1145.08 313.96,-1142.12 316.92,-1142.12 316.92,-1142.12 375.08,-1142.12 375.08,-1142.12 378.04,-1142.12 381,-1145.08 381,-1148.04 381,-1148.04 381,-1153.96 381,-1153.96 381,-1156.92 378.04,-1159.88 375.08,-1159.88"/>
<text text-anchor="start" x="319" y="-1147.33" font-family="Helvetica,sans-Serif" font-size="9.00">chat&#45;input.tsx</text>
</a>
</g>
</g>
<!-- src/components/chat&#45;interface.tsx&#45;&gt;src/components/chat&#45;input.tsx -->
<g id="edge22" class="edge">
<title>src/components/chat&#45;interface.tsx&#45;&gt;src/components/chat&#45;input.tsx</title>
<path fill="none" stroke="#000000" stroke-width="2" stroke-opacity="0.200000" d="M276.12,-1153.49C284.49,-1153.19 293.29,-1152.87 301.71,-1152.56"/>
<polygon fill="#000000" fill-opacity="0.200000" stroke="#000000" stroke-width="2" stroke-opacity="0.200000" points="301.7,-1154.67 307.62,-1152.35 301.55,-1150.47 301.7,-1154.67"/>
</g>
<!-- src/store/chat&#45;store.ts -->
<g id="node32" class="node">
<title>src/store/chat&#45;store.ts</title>
<g id="a_node32"><a xlink:href="src/store/chat-store.ts" xlink:title="chat&#45;store.ts">
<path fill="#ddfeff" stroke="black" d="M489.71,-915.88C489.71,-915.88 436.04,-915.88 436.04,-915.88 433.08,-915.88 430.12,-912.92 430.12,-909.96 430.12,-909.96 430.12,-904.04 430.12,-904.04 430.12,-901.08 433.08,-898.12 436.04,-898.12 436.04,-898.12 489.71,-898.12 489.71,-898.12 492.67,-898.12 495.62,-901.08 495.62,-904.04 495.62,-904.04 495.62,-909.96 495.62,-909.96 495.62,-912.92 492.67,-915.88 489.71,-915.88"/>
<text text-anchor="start" x="438.12" y="-903.33" font-family="Helvetica,sans-Serif" font-size="9.00">chat&#45;store.ts</text>
</a>
</g>
</g>
<!-- src/components/chat&#45;interface.tsx&#45;&gt;src/store/chat&#45;store.ts -->
<g id="edge24" class="edge">
<title>src/components/chat&#45;interface.tsx&#45;&gt;src/store/chat&#45;store.ts</title>
<path fill="none" stroke="#000000" stroke-width="2" stroke-opacity="0.200000" d="M275.96,-1147.41C279.22,-1145.45 282.15,-1143.02 284.5,-1140 297.68,-1123.06 278.45,-963.22 292.5,-947 324.17,-910.43 352.6,-938.85 399.5,-927 408.43,-924.74 417.95,-921.91 426.8,-919.1"/>
<polygon fill="#000000" fill-opacity="0.200000" stroke="#000000" stroke-width="2" stroke-opacity="0.200000" points="427.44,-921.1 432.5,-917.24 426.14,-917.1 427.44,-921.1"/>
</g>
<!-- src/components/chat&#45;message.tsx -->
<g id="node33" class="node">
<title>src/components/chat&#45;message.tsx</title>
<g id="a_node33"><a xlink:href="src/components/chat-message.tsx" xlink:title="chat&#45;message.tsx">
<path fill="#bbfeff" stroke="black" d="M383.71,-1189.88C383.71,-1189.88 308.29,-1189.88 308.29,-1189.88 305.33,-1189.88 302.38,-1186.92 302.38,-1183.96 302.38,-1183.96 302.38,-1178.04 302.38,-1178.04 302.38,-1175.08 305.33,-1172.12 308.29,-1172.12 308.29,-1172.12 383.71,-1172.12 383.71,-1172.12 386.67,-1172.12 389.62,-1175.08 389.62,-1178.04 389.62,-1178.04 389.62,-1183.96 389.62,-1183.96 389.62,-1186.92 386.67,-1189.88 383.71,-1189.88"/>
<text text-anchor="start" x="310.38" y="-1177.33" font-family="Helvetica,sans-Serif" font-size="9.00">chat&#45;message.tsx</text>
</a>
</g>
</g>
<!-- src/components/chat&#45;interface.tsx&#45;&gt;src/components/chat&#45;message.tsx -->
<g id="edge23" class="edge">
<title>src/components/chat&#45;interface.tsx&#45;&gt;src/components/chat&#45;message.tsx</title>
<path fill="none" stroke="#000000" stroke-width="2" stroke-opacity="0.200000" d="M273.92,-1164.31C281.24,-1166.03 288.95,-1167.84 296.49,-1169.61"/>
<polygon fill="#000000" fill-opacity="0.200000" stroke="#000000" stroke-width="2" stroke-opacity="0.200000" points="295.97,-1171.65 302.29,-1170.97 296.93,-1167.56 295.97,-1171.65"/>
</g>
<!-- src/app/(dashboard)/layout.tsx -->
<g id="node8" class="node">
<title>src/app/(dashboard)/layout.tsx</title>
<g id="a_node8"><a xlink:href="src/app/(dashboard)/layout.tsx" xlink:title="layout.tsx">
<path fill="#bbfeff" stroke="black" d="M96.21,-709.88C96.21,-709.88 53.79,-709.88 53.79,-709.88 50.83,-709.88 47.88,-706.92 47.88,-703.96 47.88,-703.96 47.88,-698.04 47.88,-698.04 47.88,-695.08 50.83,-692.12 53.79,-692.12 53.79,-692.12 96.21,-692.12 96.21,-692.12 99.17,-692.12 102.12,-695.08 102.12,-698.04 102.12,-698.04 102.12,-703.96 102.12,-703.96 102.12,-706.92 99.17,-709.88 96.21,-709.88"/>
<text text-anchor="start" x="55.88" y="-697.33" font-family="Helvetica,sans-Serif" font-size="9.00">layout.tsx</text>
</a>
</g>
</g>
<!-- src/components/sidebar.tsx -->
<g id="node9" class="node">
<title>src/components/sidebar.tsx</title>
<g id="a_node9"><a xlink:href="src/components/sidebar.tsx" xlink:title="sidebar.tsx">
<path fill="#bbfeff" stroke="black" d="M257.46,-1193.88C257.46,-1193.88 209.04,-1193.88 209.04,-1193.88 206.08,-1193.88 203.12,-1190.92 203.12,-1187.96 203.12,-1187.96 203.12,-1182.04 203.12,-1182.04 203.12,-1179.08 206.08,-1176.12 209.04,-1176.12 209.04,-1176.12 257.46,-1176.12 257.46,-1176.12 260.42,-1176.12 263.38,-1179.08 263.38,-1182.04 263.38,-1182.04 263.38,-1187.96 263.38,-1187.96 263.38,-1190.92 260.42,-1193.88 257.46,-1193.88"/>
<text text-anchor="start" x="211.12" y="-1181.33" font-family="Helvetica,sans-Serif" font-size="9.00">sidebar.tsx</text>
</a>
</g>
</g>
<!-- src/app/(dashboard)/layout.tsx&#45;&gt;src/components/sidebar.tsx -->
<g id="edge5" class="edge">
<title>src/app/(dashboard)/layout.tsx&#45;&gt;src/components/sidebar.tsx</title>
<path fill="none" stroke="#000000" stroke-width="2" stroke-opacity="0.200000" d="M102.59,-701.54C113.69,-703.2 125.72,-707.16 133.25,-716 198.97,-793.17 111.77,-1092.52 177.12,-1170 181.62,-1175.33 187.81,-1178.86 194.41,-1181.19"/>
<polygon fill="#000000" fill-opacity="0.200000" stroke="#000000" stroke-width="2" stroke-opacity="0.200000" points="193.65,-1183.15 199.99,-1182.72 194.76,-1179.11 193.65,-1183.15"/>
</g>
<!-- src/components/sidebar.tsx&#45;&gt;src/types/index.ts -->
<g id="edge36" class="edge">
<title>src/components/sidebar.tsx&#45;&gt;src/types/index.ts</title>
<path fill="none" stroke="#000000" stroke-width="2" stroke-opacity="0.200000" d="M263.79,-1182.34C271.66,-1180.16 279.39,-1176.4 284.5,-1170 301.17,-1149.11 279.34,-1073.26 292.5,-1050 323.15,-995.81 348.79,-990.72 407.5,-970 428.88,-962.46 488.9,-960.07 527.81,-959.33"/>
<polygon fill="#000000" fill-opacity="0.200000" stroke="#000000" stroke-width="2" stroke-opacity="0.200000" points="527.74,-961.43 533.7,-959.23 527.67,-957.23 527.74,-961.43"/>
</g>
<!-- src/components/sidebar/nav&#45;item.tsx -->
<g id="node39" class="node">
<title>src/components/sidebar/nav&#45;item.tsx</title>
<g id="a_node39"><a xlink:href="src/components/sidebar/nav-item.tsx" xlink:title="nav&#45;item.tsx">
<path fill="#bbfeff" stroke="black" d="M372.46,-1223.88C372.46,-1223.88 319.54,-1223.88 319.54,-1223.88 316.58,-1223.88 313.62,-1220.92 313.62,-1217.96 313.62,-1217.96 313.62,-1212.04 313.62,-1212.04 313.62,-1209.08 316.58,-1206.12 319.54,-1206.12 319.54,-1206.12 372.46,-1206.12 372.46,-1206.12 375.42,-1206.12 378.38,-1209.08 378.38,-1212.04 378.38,-1212.04 378.38,-1217.96 378.38,-1217.96 378.38,-1220.92 375.42,-1223.88 372.46,-1223.88"/>
<text text-anchor="start" x="321.62" y="-1211.33" font-family="Helvetica,sans-Serif" font-size="9.00">nav&#45;item.tsx</text>
</a>
</g>
</g>
<!-- src/components/sidebar.tsx&#45;&gt;src/components/sidebar/nav&#45;item.tsx -->
<g id="edge35" class="edge">
<title>src/components/sidebar.tsx&#45;&gt;src/components/sidebar/nav&#45;item.tsx</title>
<path fill="none" stroke="#000000" stroke-width="2" stroke-opacity="0.200000" d="M263.82,-1193.89C272.99,-1196.57 283.14,-1199.48 292.5,-1202 296.48,-1203.07 300.65,-1204.16 304.81,-1205.23"/>
<polygon fill="#000000" fill-opacity="0.200000" stroke="#000000" stroke-width="2" stroke-opacity="0.200000" points="304.03,-1207.2 310.36,-1206.63 305.06,-1203.13 304.03,-1207.2"/>
</g>
<!-- src/app/(dashboard)/page.tsx -->
<g id="node10" class="node">
<title>src/app/(dashboard)/page.tsx</title>
<g id="a_node10"><a xlink:href="src/app/(dashboard)/page.tsx" xlink:title="page.tsx">
<path fill="#bbfeff" stroke="black" d="M96.08,-739.88C96.08,-739.88 53.92,-739.88 53.92,-739.88 50.96,-739.88 48,-736.92 48,-733.96 48,-733.96 48,-728.04 48,-728.04 48,-725.08 50.96,-722.12 53.92,-722.12 53.92,-722.12 96.08,-722.12 96.08,-722.12 99.04,-722.12 102,-725.08 102,-728.04 102,-728.04 102,-733.96 102,-733.96 102,-736.92 99.04,-739.88 96.08,-739.88"/>
<text text-anchor="start" x="57.75" y="-727.33" font-family="Helvetica,sans-Serif" font-size="9.00">page.tsx</text>
</a>
</g>
</g>
<!-- src/app/(dashboard)/page.tsx&#45;&gt;src/components/sidebar.tsx -->
<g id="edge6" class="edge">
<title>src/app/(dashboard)/page.tsx&#45;&gt;src/components/sidebar.tsx</title>
<path fill="none" stroke="#000000" stroke-width="2" stroke-opacity="0.200000" d="M76.84,-740.13C82.28,-797.19 114.24,-1104.6 177.12,-1170 181.86,-1174.93 188.04,-1178.29 194.55,-1180.57"/>
<polygon fill="#000000" fill-opacity="0.200000" stroke="#000000" stroke-width="2" stroke-opacity="0.200000" points="193.62,-1182.49 199.96,-1182.1 194.76,-1178.45 193.62,-1182.49"/>
</g>
<!-- src/app/(dashboard)/profile/account/page.tsx -->
<g id="node11" class="node">
<title>src/app/(dashboard)/profile/account/page.tsx</title>
<g id="a_node11"><a xlink:href="src/app/(dashboard)/profile/account/page.tsx" xlink:title="no&#45;orphans">
<path fill="#ccffcc" stroke="orange" d="M96.08,-305.88C96.08,-305.88 53.92,-305.88 53.92,-305.88 50.96,-305.88 48,-302.92 48,-299.96 48,-299.96 48,-294.04 48,-294.04 48,-291.08 50.96,-288.12 53.92,-288.12 53.92,-288.12 96.08,-288.12 96.08,-288.12 99.04,-288.12 102,-291.08 102,-294.04 102,-294.04 102,-299.96 102,-299.96 102,-302.92 99.04,-305.88 96.08,-305.88"/>
<text text-anchor="start" x="57.75" y="-293.32" font-family="Helvetica,sans-Serif" font-size="9.00" fill="orange">page.tsx</text>
</a>
</g>
</g>
<!-- src/app/(dashboard)/profile/layout.tsx -->
<g id="node12" class="node">
<title>src/app/(dashboard)/profile/layout.tsx</title>
<g id="a_node12"><a xlink:href="src/app/(dashboard)/profile/layout.tsx" xlink:title="layout.tsx">
<path fill="#bbfeff" stroke="black" d="M96.21,-477.88C96.21,-477.88 53.79,-477.88 53.79,-477.88 50.83,-477.88 47.88,-474.92 47.88,-471.96 47.88,-471.96 47.88,-466.04 47.88,-466.04 47.88,-463.08 50.83,-460.12 53.79,-460.12 53.79,-460.12 96.21,-460.12 96.21,-460.12 99.17,-460.12 102.12,-463.08 102.12,-466.04 102.12,-466.04 102.12,-471.96 102.12,-471.96 102.12,-474.92 99.17,-477.88 96.21,-477.88"/>
<text text-anchor="start" x="55.88" y="-465.32" font-family="Helvetica,sans-Serif" font-size="9.00">layout.tsx</text>
</a>
</g>
</g>
<!-- src/components/profile&#45;section.tsx -->
<g id="node13" class="node">
<title>src/components/profile&#45;section.tsx</title>
<g id="a_node13"><a xlink:href="src/components/profile-section.tsx" xlink:title="profile&#45;section.tsx">
<path fill="#bbfeff" stroke="black" d="M270.96,-1133.88C270.96,-1133.88 195.54,-1133.88 195.54,-1133.88 192.58,-1133.88 189.62,-1130.92 189.62,-1127.96 189.62,-1127.96 189.62,-1122.04 189.62,-1122.04 189.62,-1119.08 192.58,-1116.12 195.54,-1116.12 195.54,-1116.12 270.96,-1116.12 270.96,-1116.12 273.92,-1116.12 276.88,-1119.08 276.88,-1122.04 276.88,-1122.04 276.88,-1127.96 276.88,-1127.96 276.88,-1130.92 273.92,-1133.88 270.96,-1133.88"/>
<text text-anchor="start" x="197.62" y="-1121.33" font-family="Helvetica,sans-Serif" font-size="9.00">profile&#45;section.tsx</text>
</a>
</g>
</g>
<!-- src/app/(dashboard)/profile/layout.tsx&#45;&gt;src/components/profile&#45;section.tsx -->
<g id="edge7" class="edge">
<title>src/app/(dashboard)/profile/layout.tsx&#45;&gt;src/components/profile&#45;section.tsx</title>
<path fill="none" stroke="#000000" stroke-width="2" stroke-opacity="0.200000" d="M102.4,-469.4C113.6,-471.02 125.77,-474.98 133.25,-484 222.26,-591.35 88.62,-1002.23 177.12,-1110 178.56,-1111.74 180.17,-1113.3 181.92,-1114.68"/>
<polygon fill="#000000" fill-opacity="0.200000" stroke="#000000" stroke-width="2" stroke-opacity="0.200000" points="180.47,-1116.25 186.68,-1117.61 182.68,-1112.68 180.47,-1116.25"/>
</g>
<!-- src/components/profile&#45;section.tsx&#45;&gt;src/store/user&#45;store.ts -->
<g id="edge34" class="edge">
<title>src/components/profile&#45;section.tsx&#45;&gt;src/store/user&#45;store.ts</title>
<path fill="none" stroke="#000000" stroke-width="2" stroke-opacity="0.200000" d="M277.33,-1116.53C280.04,-1114.74 282.48,-1112.58 284.5,-1110 296.95,-1094.04 278.82,-942.92 292.5,-928 324.92,-892.66 362.09,-944.01 399.5,-914 407.62,-907.49 399.86,-899.06 407.5,-892 411.37,-888.42 416.02,-885.69 420.94,-883.6"/>
<polygon fill="#000000" fill-opacity="0.200000" stroke="#000000" stroke-width="2" stroke-opacity="0.200000" points="421.57,-885.61 426.55,-881.65 420.19,-881.64 421.57,-885.61"/>
</g>
<!-- src/components/profile/menu&#45;item.tsx -->
<g id="node38" class="node">
<title>src/components/profile/menu&#45;item.tsx</title>
<g id="a_node38"><a xlink:href="src/components/profile/menu-item.tsx" xlink:title="menu&#45;item.tsx">
<path fill="#bbfeff" stroke="black" d="M376.58,-1107.88C376.58,-1107.88 315.42,-1107.88 315.42,-1107.88 312.46,-1107.88 309.5,-1104.92 309.5,-1101.96 309.5,-1101.96 309.5,-1096.04 309.5,-1096.04 309.5,-1093.08 312.46,-1090.12 315.42,-1090.12 315.42,-1090.12 376.58,-1090.12 376.58,-1090.12 379.54,-1090.12 382.5,-1093.08 382.5,-1096.04 382.5,-1096.04 382.5,-1101.96 382.5,-1101.96 382.5,-1104.92 379.54,-1107.88 376.58,-1107.88"/>
<text text-anchor="start" x="317.5" y="-1095.33" font-family="Helvetica,sans-Serif" font-size="9.00">menu&#45;item.tsx</text>
</a>
</g>
</g>
<!-- src/components/profile&#45;section.tsx&#45;&gt;src/components/profile/menu&#45;item.tsx -->
<g id="edge33" class="edge">
<title>src/components/profile&#45;section.tsx&#45;&gt;src/components/profile/menu&#45;item.tsx</title>
<path fill="none" stroke="#000000" stroke-width="2" stroke-opacity="0.200000" d="M273.92,-1115.69C282.58,-1113.65 291.8,-1111.49 300.62,-1109.42"/>
<polygon fill="#000000" fill-opacity="0.200000" stroke="#000000" stroke-width="2" stroke-opacity="0.200000" points="300.98,-1111.49 306.34,-1108.08 300.02,-1107.4 300.98,-1111.49"/>
</g>
<!-- src/app/(dashboard)/profile/manage&#45;history/page.tsx -->
<g id="node14" class="node">
<title>src/app/(dashboard)/profile/manage&#45;history/page.tsx</title>
<g id="a_node14"><a xlink:href="src/app/(dashboard)/profile/manage-history/page.tsx" xlink:title="no&#45;orphans">
<path fill="#ccffcc" stroke="orange" d="M96.08,-365.88C96.08,-365.88 53.92,-365.88 53.92,-365.88 50.96,-365.88 48,-362.92 48,-359.96 48,-359.96 48,-354.04 48,-354.04 48,-351.08 50.96,-348.12 53.92,-348.12 53.92,-348.12 96.08,-348.12 96.08,-348.12 99.04,-348.12 102,-351.08 102,-354.04 102,-354.04 102,-359.96 102,-359.96 102,-362.92 99.04,-365.88 96.08,-365.88"/>
<text text-anchor="start" x="57.75" y="-353.32" font-family="Helvetica,sans-Serif" font-size="9.00" fill="orange">page.tsx</text>
</a>
</g>
</g>
<!-- src/app/(dashboard)/profile/page.tsx -->
<g id="node15" class="node">
<title>src/app/(dashboard)/profile/page.tsx</title>
<g id="a_node15"><a xlink:href="src/app/(dashboard)/profile/page.tsx" xlink:title="no&#45;orphans">
<path fill="#ccffcc" stroke="orange" d="M96.08,-507.88C96.08,-507.88 53.92,-507.88 53.92,-507.88 50.96,-507.88 48,-504.92 48,-501.96 48,-501.96 48,-496.04 48,-496.04 48,-493.08 50.96,-490.12 53.92,-490.12 53.92,-490.12 96.08,-490.12 96.08,-490.12 99.04,-490.12 102,-493.08 102,-496.04 102,-496.04 102,-501.96 102,-501.96 102,-504.92 99.04,-507.88 96.08,-507.88"/>
<text text-anchor="start" x="57.75" y="-495.32" font-family="Helvetica,sans-Serif" font-size="9.00" fill="orange">page.tsx</text>
</a>
</g>
</g>
<!-- src/app/(dashboard)/profile/voice&#45;settings/page.tsx -->
<g id="node16" class="node">
<title>src/app/(dashboard)/profile/voice&#45;settings/page.tsx</title>
<g id="a_node16"><a xlink:href="src/app/(dashboard)/profile/voice-settings/page.tsx" xlink:title="no&#45;orphans">
<path fill="#ccffcc" stroke="orange" d="M96.08,-425.88C96.08,-425.88 53.92,-425.88 53.92,-425.88 50.96,-425.88 48,-422.92 48,-419.96 48,-419.96 48,-414.04 48,-414.04 48,-411.08 50.96,-408.12 53.92,-408.12 53.92,-408.12 96.08,-408.12 96.08,-408.12 99.04,-408.12 102,-411.08 102,-414.04 102,-414.04 102,-419.96 102,-419.96 102,-422.92 99.04,-425.88 96.08,-425.88"/>
<text text-anchor="start" x="57.75" y="-413.32" font-family="Helvetica,sans-Serif" font-size="9.00" fill="orange">page.tsx</text>
</a>
</g>
</g>
<!-- src/app/(dashboard)/talk/page.tsx -->
<g id="node17" class="node">
<title>src/app/(dashboard)/talk/page.tsx</title>
<g id="a_node17"><a xlink:href="src/app/(dashboard)/talk/page.tsx" xlink:title="page.tsx">
<path fill="#bbfeff" stroke="black" d="M96.08,-567.88C96.08,-567.88 53.92,-567.88 53.92,-567.88 50.96,-567.88 48,-564.92 48,-561.96 48,-561.96 48,-556.04 48,-556.04 48,-553.08 50.96,-550.12 53.92,-550.12 53.92,-550.12 96.08,-550.12 96.08,-550.12 99.04,-550.12 102,-553.08 102,-556.04 102,-556.04 102,-561.96 102,-561.96 102,-564.92 99.04,-567.88 96.08,-567.88"/>
<text text-anchor="start" x="57.75" y="-555.33" font-family="Helvetica,sans-Serif" font-size="9.00">page.tsx</text>
</a>
</g>
</g>
<!-- src/app/(dashboard)/talk/page.tsx&#45;&gt;src/components/chat&#45;interface.tsx -->
<g id="edge8" class="edge">
<title>src/app/(dashboard)/talk/page.tsx&#45;&gt;src/components/chat&#45;interface.tsx</title>
<path fill="none" stroke="#000000" stroke-width="2" stroke-opacity="0.200000" d="M97.68,-568.29C110.31,-574.92 125.28,-585.12 133.25,-599 193.28,-703.62 100.07,-1047.21 177.12,-1140 178.79,-1142 180.69,-1143.75 182.76,-1145.28"/>
<polygon fill="#000000" fill-opacity="0.200000" stroke="#000000" stroke-width="2" stroke-opacity="0.200000" points="181.51,-1146.98 187.76,-1148.15 183.6,-1143.34 181.51,-1146.98"/>
</g>
<!-- src/app/(dashboard)/threads/layout.tsx -->
<g id="node18" class="node">
<title>src/app/(dashboard)/threads/layout.tsx</title>
<g id="a_node18"><a xlink:href="src/app/(dashboard)/threads/layout.tsx" xlink:title="layout.tsx">
<path fill="#bbfeff" stroke="black" d="M96.21,-627.88C96.21,-627.88 53.79,-627.88 53.79,-627.88 50.83,-627.88 47.88,-624.92 47.88,-621.96 47.88,-621.96 47.88,-616.04 47.88,-616.04 47.88,-613.08 50.83,-610.12 53.79,-610.12 53.79,-610.12 96.21,-610.12 96.21,-610.12 99.17,-610.12 102.12,-613.08 102.12,-616.04 102.12,-616.04 102.12,-621.96 102.12,-621.96 102.12,-624.92 99.17,-627.88 96.21,-627.88"/>
<text text-anchor="start" x="55.88" y="-615.33" font-family="Helvetica,sans-Serif" font-size="9.00">layout.tsx</text>
</a>
</g>
</g>
<!-- src/components/threads&#45;section.tsx -->
<g id="node19" class="node">
<title>src/components/threads&#45;section.tsx</title>
<g id="a_node19"><a xlink:href="src/components/threads-section.tsx" xlink:title="threads&#45;section.tsx">
<path fill="#bbfeff" stroke="black" d="M273.58,-1073.88C273.58,-1073.88 192.92,-1073.88 192.92,-1073.88 189.96,-1073.88 187,-1070.92 187,-1067.96 187,-1067.96 187,-1062.04 187,-1062.04 187,-1059.08 189.96,-1056.12 192.92,-1056.12 192.92,-1056.12 273.58,-1056.12 273.58,-1056.12 276.54,-1056.12 279.5,-1059.08 279.5,-1062.04 279.5,-1062.04 279.5,-1067.96 279.5,-1067.96 279.5,-1070.92 276.54,-1073.88 273.58,-1073.88"/>
<text text-anchor="start" x="195" y="-1061.33" font-family="Helvetica,sans-Serif" font-size="9.00">threads&#45;section.tsx</text>
</a>
</g>
</g>
<!-- src/app/(dashboard)/threads/layout.tsx&#45;&gt;src/components/threads&#45;section.tsx -->
<g id="edge9" class="edge">
<title>src/app/(dashboard)/threads/layout.tsx&#45;&gt;src/components/threads&#45;section.tsx</title>
<path fill="none" stroke="#000000" stroke-width="2" stroke-opacity="0.200000" d="M102.36,-620.06C113.28,-621.84 125.24,-625.74 133.25,-634 192.47,-695.05 223.34,-973.24 230.57,-1047"/>
<polygon fill="#000000" fill-opacity="0.200000" stroke="#000000" stroke-width="2" stroke-opacity="0.200000" points="228.45,-1046.88 231.11,-1052.65 232.63,-1046.48 228.45,-1046.88"/>
</g>
<!-- src/hooks/use&#45;media&#45;query.ts -->
<g id="node28" class="node">
<title>src/hooks/use&#45;media&#45;query.ts</title>
<g id="a_node28"><a xlink:href="src/hooks/use-media-query.ts" xlink:title="use&#45;media&#45;query.ts">
<path fill="#ddfeff" stroke="black" d="M504.33,-825.88C504.33,-825.88 421.42,-825.88 421.42,-825.88 418.46,-825.88 415.5,-822.92 415.5,-819.96 415.5,-819.96 415.5,-814.04 415.5,-814.04 415.5,-811.08 418.46,-808.12 421.42,-808.12 421.42,-808.12 504.33,-808.12 504.33,-808.12 507.29,-808.12 510.25,-811.08 510.25,-814.04 510.25,-814.04 510.25,-819.96 510.25,-819.96 510.25,-822.92 507.29,-825.88 504.33,-825.88"/>
<text text-anchor="start" x="423.5" y="-813.33" font-family="Helvetica,sans-Serif" font-size="9.00">use&#45;media&#45;query.ts</text>
</a>
</g>
</g>
<!-- src/components/threads&#45;section.tsx&#45;&gt;src/hooks/use&#45;media&#45;query.ts -->
<g id="edge37" class="edge">
<title>src/components/threads&#45;section.tsx&#45;&gt;src/hooks/use&#45;media&#45;query.ts</title>
<path fill="none" stroke="#000000" stroke-width="2" stroke-opacity="0.200000" d="M235.13,-1055.84C239.13,-1016.36 256.94,-861.24 292.5,-831 324.13,-804.1 372.17,-802.55 409.01,-806.6"/>
<polygon fill="#000000" fill-opacity="0.200000" stroke="#000000" stroke-width="2" stroke-opacity="0.200000" points="408.43,-808.64 414.64,-807.3 408.94,-804.47 408.43,-808.64"/>
</g>
<!-- src/components/threads&#45;section.tsx&#45;&gt;src/store/user&#45;store.ts -->
<g id="edge38" class="edge">
<title>src/components/threads&#45;section.tsx&#45;&gt;src/store/user&#45;store.ts</title>
<path fill="none" stroke="#000000" stroke-width="2" stroke-opacity="0.200000" d="M234.52,-1055.96C235.87,-1028.36 243.97,-944.65 292.5,-905 311.12,-889.79 375.8,-893.05 399.5,-889 406.38,-887.82 413.67,-886.5 420.74,-885.16"/>
<polygon fill="#000000" fill-opacity="0.200000" stroke="#000000" stroke-width="2" stroke-opacity="0.200000" points="421.07,-887.24 426.57,-884.05 420.29,-883.11 421.07,-887.24"/>
</g>
<!-- src/app/(dashboard)/threads/page.tsx -->
<g id="node20" class="node">
<title>src/app/(dashboard)/threads/page.tsx</title>
<g id="a_node20"><a xlink:href="src/app/(dashboard)/threads/page.tsx" xlink:title="page.tsx">
<path fill="#bbfeff" stroke="black" d="M96.08,-657.88C96.08,-657.88 53.92,-657.88 53.92,-657.88 50.96,-657.88 48,-654.92 48,-651.96 48,-651.96 48,-646.04 48,-646.04 48,-643.08 50.96,-640.12 53.92,-640.12 53.92,-640.12 96.08,-640.12 96.08,-640.12 99.04,-640.12 102,-643.08 102,-646.04 102,-646.04 102,-651.96 102,-651.96 102,-654.92 99.04,-657.88 96.08,-657.88"/>
<text text-anchor="start" x="57.75" y="-645.33" font-family="Helvetica,sans-Serif" font-size="9.00">page.tsx</text>
</a>
</g>
</g>
<!-- src/app/(dashboard)/threads/page.tsx&#45;&gt;src/components/chat&#45;interface.tsx -->
<g id="edge10" class="edge">
<title>src/app/(dashboard)/threads/page.tsx&#45;&gt;src/components/chat&#45;interface.tsx</title>
<path fill="none" stroke="#000000" stroke-width="2" stroke-opacity="0.200000" d="M102.23,-648.5C113.4,-649.73 125.59,-653.26 133.25,-662 203.55,-742.23 108.54,-1058.3 177.12,-1140 178.8,-1141.99 180.71,-1143.74 182.79,-1145.26"/>
<polygon fill="#000000" fill-opacity="0.200000" stroke="#000000" stroke-width="2" stroke-opacity="0.200000" points="181.55,-1146.97 187.8,-1148.12 183.63,-1143.32 181.55,-1146.97"/>
</g>
<!-- src/app/globals.css -->
<g id="node21" class="node">
<title>src/app/globals.css</title>
<g id="a_node21"><a xlink:href="src/app/globals.css" xlink:title="globals.css">
<path fill="#ffffcc" stroke="black" d="M258.21,-165.88C258.21,-165.88 208.29,-165.88 208.29,-165.88 205.33,-165.88 202.38,-162.92 202.38,-159.96 202.38,-159.96 202.38,-154.04 202.38,-154.04 202.38,-151.08 205.33,-148.12 208.29,-148.12 208.29,-148.12 258.21,-148.12 258.21,-148.12 261.17,-148.12 264.12,-151.08 264.12,-154.04 264.12,-154.04 264.12,-159.96 264.12,-159.96 264.12,-162.92 261.17,-165.88 258.21,-165.88"/>
<text text-anchor="start" x="210.38" y="-153.32" font-family="Helvetica,sans-Serif" font-size="9.00">globals.css</text>
</a>
</g>
</g>
<!-- src/app/layout.tsx -->
<g id="node22" class="node">
<title>src/app/layout.tsx</title>
<g id="a_node22"><a xlink:href="src/app/layout.tsx" xlink:title="layout.tsx">
<path fill="#bbfeff" stroke="black" d="M96.21,-165.88C96.21,-165.88 53.79,-165.88 53.79,-165.88 50.83,-165.88 47.88,-162.92 47.88,-159.96 47.88,-159.96 47.88,-154.04 47.88,-154.04 47.88,-151.08 50.83,-148.12 53.79,-148.12 53.79,-148.12 96.21,-148.12 96.21,-148.12 99.17,-148.12 102.12,-151.08 102.12,-154.04 102.12,-154.04 102.12,-159.96 102.12,-159.96 102.12,-162.92 99.17,-165.88 96.21,-165.88"/>
<text text-anchor="start" x="55.88" y="-153.32" font-family="Helvetica,sans-Serif" font-size="9.00">layout.tsx</text>
</a>
</g>
</g>
<!-- src/app/layout.tsx&#45;&gt;src/app/globals.css -->
<g id="edge11" class="edge">
<title>src/app/layout.tsx&#45;&gt;src/app/globals.css</title>
<path fill="none" stroke="#000000" stroke-width="2" stroke-opacity="0.200000" d="M102.51,-157C127.41,-157 164.98,-157 193.3,-157"/>
<polygon fill="#000000" fill-opacity="0.200000" stroke="#000000" stroke-width="2" stroke-opacity="0.200000" points="193.11,-159.1 199.11,-157 193.11,-154.9 193.11,-159.1"/>
</g>
<!-- src/app/onboarding/components/name&#45;step.tsx -->
<g id="node23" class="node">
<title>src/app/onboarding/components/name&#45;step.tsx</title>
<g id="a_node23"><a xlink:href="src/app/onboarding/components/name-step.tsx" xlink:title="name&#45;step.tsx">
<path fill="#bbfeff" stroke="black" d="M263.83,-87.88C263.83,-87.88 202.67,-87.88 202.67,-87.88 199.71,-87.88 196.75,-84.92 196.75,-81.96 196.75,-81.96 196.75,-76.04 196.75,-76.04 196.75,-73.08 199.71,-70.12 202.67,-70.12 202.67,-70.12 263.83,-70.12 263.83,-70.12 266.79,-70.12 269.75,-73.08 269.75,-76.04 269.75,-76.04 269.75,-81.96 269.75,-81.96 269.75,-84.92 266.79,-87.88 263.83,-87.88"/>
<text text-anchor="start" x="204.75" y="-75.33" font-family="Helvetica,sans-Serif" font-size="9.00">name&#45;step.tsx</text>
</a>
</g>
</g>
<!-- src/app/onboarding/components/welcome&#45;step.tsx -->
<g id="node24" class="node">
<title>src/app/onboarding/components/welcome&#45;step.tsx</title>
<g id="a_node24"><a xlink:href="src/app/onboarding/components/welcome-step.tsx" xlink:title="welcome&#45;step.tsx">
<path fill="#bbfeff" stroke="black" d="M270.58,-57.88C270.58,-57.88 195.92,-57.88 195.92,-57.88 192.96,-57.88 190,-54.92 190,-51.96 190,-51.96 190,-46.04 190,-46.04 190,-43.08 192.96,-40.12 195.92,-40.12 195.92,-40.12 270.58,-40.12 270.58,-40.12 273.54,-40.12 276.5,-43.08 276.5,-46.04 276.5,-46.04 276.5,-51.96 276.5,-51.96 276.5,-54.92 273.54,-57.88 270.58,-57.88"/>
<text text-anchor="start" x="198" y="-45.33" font-family="Helvetica,sans-Serif" font-size="9.00">welcome&#45;step.tsx</text>
</a>
</g>
</g>
<!-- src/app/onboarding/lottie&#45;animation.tsx -->
<g id="node25" class="node">
<title>src/app/onboarding/lottie&#45;animation.tsx</title>
<g id="a_node25"><a xlink:href="src/app/onboarding/lottie-animation.tsx" xlink:title="lottie&#45;animation.tsx">
<path fill="#bbfeff" stroke="black" d="M386.33,-70.88C386.33,-70.88 305.67,-70.88 305.67,-70.88 302.71,-70.88 299.75,-67.92 299.75,-64.96 299.75,-64.96 299.75,-59.04 299.75,-59.04 299.75,-56.08 302.71,-53.12 305.67,-53.12 305.67,-53.12 386.33,-53.12 386.33,-53.12 389.29,-53.12 392.25,-56.08 392.25,-59.04 392.25,-59.04 392.25,-64.96 392.25,-64.96 392.25,-67.92 389.29,-70.88 386.33,-70.88"/>
<text text-anchor="start" x="307.75" y="-58.33" font-family="Helvetica,sans-Serif" font-size="9.00">lottie&#45;animation.tsx</text>
</a>
</g>
</g>
<!-- src/app/onboarding/components/welcome&#45;step.tsx&#45;&gt;src/app/onboarding/lottie&#45;animation.tsx -->
<g id="edge12" class="edge">
<title>src/app/onboarding/components/welcome&#45;step.tsx&#45;&gt;src/app/onboarding/lottie&#45;animation.tsx</title>
<path fill="none" stroke="#000000" stroke-width="2" stroke-dasharray="5,2" stroke-opacity="0.200000" d="M276.75,-53.99C281.29,-54.52 285.94,-55.07 290.59,-55.61"/>
<polygon fill="#000000" fill-opacity="0.200000" stroke="#000000" stroke-width="2" stroke-opacity="0.200000" points="290.27,-57.69 296.48,-56.3 290.76,-53.52 290.27,-57.69"/>
</g>
<!-- src/app/onboarding/intro&#45;mobile.json -->
<g id="node26" class="node">
<title>src/app/onboarding/intro&#45;mobile.json</title>
<g id="a_node26"><a xlink:href="src/app/onboarding/intro-mobile.json" xlink:title="intro&#45;mobile.json">
<path fill="#ffee44" stroke="black" d="M499.08,-60.88C499.08,-60.88 426.67,-60.88 426.67,-60.88 423.71,-60.88 420.75,-57.92 420.75,-54.96 420.75,-54.96 420.75,-49.04 420.75,-49.04 420.75,-46.08 423.71,-43.12 426.67,-43.12 426.67,-43.12 499.08,-43.12 499.08,-43.12 502.04,-43.12 505,-46.08 505,-49.04 505,-49.04 505,-54.96 505,-54.96 505,-57.92 502.04,-60.88 499.08,-60.88"/>
<text text-anchor="start" x="428.75" y="-48.33" font-family="Helvetica,sans-Serif" font-size="9.00">intro&#45;mobile.json</text>
</a>
</g>
</g>
<!-- src/app/onboarding/lottie&#45;animation.tsx&#45;&gt;src/app/onboarding/intro&#45;mobile.json -->
<g id="edge13" class="edge">
<title>src/app/onboarding/lottie&#45;animation.tsx&#45;&gt;src/app/onboarding/intro&#45;mobile.json</title>
<path fill="none" stroke="#000000" stroke-width="2" stroke-opacity="0.200000" d="M392.73,-58.02C398.87,-57.48 405.19,-56.93 411.41,-56.39"/>
<polygon fill="#000000" fill-opacity="0.200000" stroke="#000000" stroke-width="2" stroke-opacity="0.200000" points="411.59,-58.49 417.38,-55.87 411.22,-54.3 411.59,-58.49"/>
</g>
<!-- src/app/onboarding/intro&#45;web.json -->
<g id="node27" class="node">
<title>src/app/onboarding/intro&#45;web.json</title>
<g id="a_node27"><a xlink:href="src/app/onboarding/intro-web.json" xlink:title="intro&#45;web.json">
<path fill="#ffee44" stroke="black" d="M493.83,-90.88C493.83,-90.88 431.92,-90.88 431.92,-90.88 428.96,-90.88 426,-87.92 426,-84.96 426,-84.96 426,-79.04 426,-79.04 426,-76.08 428.96,-73.12 431.92,-73.12 431.92,-73.12 493.83,-73.12 493.83,-73.12 496.79,-73.12 499.75,-76.08 499.75,-79.04 499.75,-79.04 499.75,-84.96 499.75,-84.96 499.75,-87.92 496.79,-90.88 493.83,-90.88"/>
<text text-anchor="start" x="434" y="-78.33" font-family="Helvetica,sans-Serif" font-size="9.00">intro&#45;web.json</text>
</a>
</g>
</g>
<!-- src/app/onboarding/lottie&#45;animation.tsx&#45;&gt;src/app/onboarding/intro&#45;web.json -->
<g id="edge14" class="edge">
<title>src/app/onboarding/lottie&#45;animation.tsx&#45;&gt;src/app/onboarding/intro&#45;web.json</title>
<path fill="none" stroke="#000000" stroke-width="2" stroke-opacity="0.200000" d="M392.73,-69.96C400.73,-71.35 409.05,-72.8 417.03,-74.19"/>
<polygon fill="#000000" fill-opacity="0.200000" stroke="#000000" stroke-width="2" stroke-opacity="0.200000" points="416.6,-76.25 422.87,-75.21 417.32,-72.11 416.6,-76.25"/>
</g>
<!-- src/app/onboarding/lottie&#45;animation.tsx&#45;&gt;src/hooks/use&#45;media&#45;query.ts -->
<g id="edge15" class="edge">
<title>src/app/onboarding/lottie&#45;animation.tsx&#45;&gt;src/hooks/use&#45;media&#45;query.ts</title>
<path fill="none" stroke="#000000" stroke-width="2" stroke-opacity="0.200000" d="M348.41,-71.27C360.25,-149.07 442.96,-692.7 459.14,-799"/>
<polygon fill="#000000" fill-opacity="0.200000" stroke="#000000" stroke-width="2" stroke-opacity="0.200000" points="457.02,-799.04 460,-804.66 461.17,-798.41 457.02,-799.04"/>
</g>
<!-- src/app/onboarding/page.tsx -->
<g id="node29" class="node">
<title>src/app/onboarding/page.tsx</title>
<g id="a_node29"><a xlink:href="src/app/onboarding/page.tsx" xlink:title="page.tsx">
<path fill="#bbfeff" stroke="black" d="M96.08,-87.88C96.08,-87.88 53.92,-87.88 53.92,-87.88 50.96,-87.88 48,-84.92 48,-81.96 48,-81.96 48,-76.04 48,-76.04 48,-73.08 50.96,-70.12 53.92,-70.12 53.92,-70.12 96.08,-70.12 96.08,-70.12 99.04,-70.12 102,-73.08 102,-76.04 102,-76.04 102,-81.96 102,-81.96 102,-84.92 99.04,-87.88 96.08,-87.88"/>
<text text-anchor="start" x="57.75" y="-75.33" font-family="Helvetica,sans-Serif" font-size="9.00">page.tsx</text>
</a>
</g>
</g>
<!-- src/app/onboarding/page.tsx&#45;&gt;src/app/onboarding/components/name&#45;step.tsx -->
<g id="edge16" class="edge">
<title>src/app/onboarding/page.tsx&#45;&gt;src/app/onboarding/components/name&#45;step.tsx</title>
<path fill="none" stroke="#000000" stroke-width="2" stroke-opacity="0.200000" d="M102.15,-79C125.44,-79 159.99,-79 187.63,-79"/>
<polygon fill="#000000" fill-opacity="0.200000" stroke="#000000" stroke-width="2" stroke-opacity="0.200000" points="187.32,-81.1 193.32,-79 187.32,-76.9 187.32,-81.1"/>
</g>
<!-- src/app/onboarding/page.tsx&#45;&gt;src/app/onboarding/components/welcome&#45;step.tsx -->
<g id="edge17" class="edge">
<title>src/app/onboarding/page.tsx&#45;&gt;src/app/onboarding/components/welcome&#45;step.tsx</title>
<path fill="none" stroke="#000000" stroke-width="2" stroke-opacity="0.200000" d="M102.15,-73.98C123.62,-69.86 154.66,-63.9 181.04,-58.83"/>
<polygon fill="#000000" fill-opacity="0.200000" stroke="#000000" stroke-width="2" stroke-opacity="0.200000" points="181.32,-60.92 186.81,-57.72 180.53,-56.79 181.32,-60.92"/>
</g>
<!-- src/app/onboarding/page.tsx&#45;&gt;src/store/user&#45;store.ts -->
<g id="edge18" class="edge">
<title>src/app/onboarding/page.tsx&#45;&gt;src/store/user&#45;store.ts</title>
<path fill="none" stroke="#000000" stroke-width="2" stroke-opacity="0.200000" d="M102.45,-78.6C113.52,-79.87 125.58,-83.41 133.25,-92 191.95,-157.69 147.6,-403 177.12,-486 238.26,-657.88 320.62,-666.51 399.5,-831 404.36,-841.14 399.8,-846.8 407.5,-855 411.48,-859.24 416.39,-862.68 421.62,-865.47"/>
<polygon fill="#000000" fill-opacity="0.200000" stroke="#000000" stroke-width="2" stroke-opacity="0.200000" points="420.36,-867.2 426.69,-867.83 422.14,-863.4 420.36,-867.2"/>
</g>
<!-- src/components/chat&#45;input.tsx&#45;&gt;src/actions/chat.ts -->
<g id="edge19" class="edge">
<title>src/components/chat&#45;input.tsx&#45;&gt;src/actions/chat.ts</title>
<path fill="none" stroke="#000000" stroke-width="2" stroke-opacity="0.200000" d="M381.29,-1146.44C387.85,-1144.36 394.28,-1141.35 399.5,-1137 435.53,-1106.96 452.07,-1051.36 458.46,-1022.86"/>
<polygon fill="#000000" fill-opacity="0.200000" stroke="#000000" stroke-width="2" stroke-opacity="0.200000" points="460.46,-1023.58 459.63,-1017.28 456.35,-1022.72 460.46,-1023.58"/>
</g>
<!-- src/components/chat&#45;input.tsx&#45;&gt;src/types/index.ts -->
<g id="edge21" class="edge">
<title>src/components/chat&#45;input.tsx&#45;&gt;src/types/index.ts</title>
<path fill="none" stroke="#000000" stroke-width="2" stroke-opacity="0.200000" d="M381.4,-1148.31C388.35,-1146.16 394.92,-1142.64 399.5,-1137 420.81,-1110.73 384.65,-1009.94 407.5,-985 424.71,-966.22 495.97,-973.73 521,-969 523.42,-968.54 525.9,-968.04 528.4,-967.51"/>
<polygon fill="#000000" fill-opacity="0.200000" stroke="#000000" stroke-width="2" stroke-opacity="0.200000" points="528.51,-969.63 533.91,-966.28 527.6,-965.53 528.51,-969.63"/>
</g>
<!-- src/components/chat&#45;input.tsx&#45;&gt;src/store/chat&#45;store.ts -->
<g id="edge20" class="edge">
<title>src/components/chat&#45;input.tsx&#45;&gt;src/store/chat&#45;store.ts</title>
<path fill="none" stroke="#000000" stroke-width="2" stroke-opacity="0.200000" d="M381.41,-1148.32C388.37,-1146.17 394.93,-1142.65 399.5,-1137 410.83,-1122.98 401.12,-991.85 407.5,-975 415.34,-954.29 432.01,-935.02 444.84,-922.32"/>
<polygon fill="#000000" fill-opacity="0.200000" stroke="#000000" stroke-width="2" stroke-opacity="0.200000" points="446.05,-924.06 448.94,-918.4 443.15,-921.03 446.05,-924.06"/>
</g>
<!-- src/store/chat&#45;store.ts&#45;&gt;src/types/index.ts -->
<g id="edge41" class="edge">
<title>src/store/chat&#45;store.ts&#45;&gt;src/types/index.ts</title>
<path fill="none" stroke="#000000" stroke-width="2" stroke-opacity="0.200000" d="M481.6,-916.3C497.24,-924.5 520.23,-936.56 537.79,-945.78"/>
<polygon fill="#000000" fill-opacity="0.200000" stroke="#000000" stroke-width="2" stroke-opacity="0.200000" points="536.46,-947.45 542.75,-948.38 538.41,-943.73 536.46,-947.45"/>
</g>
<!-- src/components/ui/text&#45;animate.tsx -->
<g id="node34" class="node">
<title>src/components/ui/text&#45;animate.tsx</title>
<g id="a_node34"><a xlink:href="src/components/ui/text-animate.tsx" xlink:title="text&#45;animate.tsx">
<path fill="#bbfeff" stroke="black" d="M496.83,-1191.88C496.83,-1191.88 428.92,-1191.88 428.92,-1191.88 425.96,-1191.88 423,-1188.92 423,-1185.96 423,-1185.96 423,-1180.04 423,-1180.04 423,-1177.08 425.96,-1174.12 428.92,-1174.12 428.92,-1174.12 496.83,-1174.12 496.83,-1174.12 499.79,-1174.12 502.75,-1177.08 502.75,-1180.04 502.75,-1180.04 502.75,-1185.96 502.75,-1185.96 502.75,-1188.92 499.79,-1191.88 496.83,-1191.88"/>
<text text-anchor="start" x="431" y="-1179.33" font-family="Helvetica,sans-Serif" font-size="9.00">text&#45;animate.tsx</text>
</a>
</g>
</g>
<!-- src/components/chat&#45;message.tsx&#45;&gt;src/components/ui/text&#45;animate.tsx -->
<g id="edge26" class="edge">
<title>src/components/chat&#45;message.tsx&#45;&gt;src/components/ui/text&#45;animate.tsx</title>
<path fill="none" stroke="#000000" stroke-width="2" stroke-opacity="0.200000" d="M390.1,-1181.75C397.87,-1181.89 406.02,-1182.03 413.92,-1182.17"/>
<polygon fill="#000000" fill-opacity="0.200000" stroke="#000000" stroke-width="2" stroke-opacity="0.200000" points="413.64,-1184.26 419.67,-1182.27 413.71,-1180.06 413.64,-1184.26"/>
</g>
<!-- src/components/ui/text&#45;animate.tsx&#45;&gt;src/lib/utils.ts -->
<g id="edge40" class="edge">
<title>src/components/ui/text&#45;animate.tsx&#45;&gt;src/lib/utils.ts</title>
<path fill="none" stroke="#000000" stroke-width="2" stroke-opacity="0.200000" d="M501.19,-1192.3C507.82,-1194.09 514.63,-1196.03 521,-1198 523.9,-1198.9 526.89,-1199.87 529.89,-1200.88"/>
<polygon fill="#000000" fill-opacity="0.200000" stroke="#000000" stroke-width="2" stroke-opacity="0.200000" points="529.03,-1202.8 535.38,-1202.77 530.4,-1198.83 529.03,-1202.8"/>
</g>
<!-- src/components/masonry&#45;layout.tsx&#45;&gt;src/hooks/use&#45;media&#45;query.ts -->
<g id="edge31" class="edge">
<title>src/components/masonry&#45;layout.tsx&#45;&gt;src/hooks/use&#45;media&#45;query.ts</title>
<path fill="none" stroke="#000000" stroke-width="2" stroke-opacity="0.200000" d="M349.88,-1055.88C358.04,-1029.91 381.89,-953.27 399.5,-889 403.37,-874.86 399.33,-869.18 407.5,-857 414.63,-846.37 425.56,-837.54 435.76,-830.89"/>
<polygon fill="#000000" fill-opacity="0.200000" stroke="#000000" stroke-width="2" stroke-opacity="0.200000" points="436.75,-832.76 440.77,-827.83 434.55,-829.17 436.75,-832.76"/>
</g>
<!-- src/components/masonry&#45;layout.tsx&#45;&gt;src/store/chat&#45;store.ts -->
<g id="edge32" class="edge">
<title>src/components/masonry&#45;layout.tsx&#45;&gt;src/store/chat&#45;store.ts</title>
<path fill="none" stroke="#000000" stroke-width="2" stroke-opacity="0.200000" d="M352.94,-1055.63C363.5,-1039.07 386.44,-1003.69 407.5,-975 420.93,-956.7 437.32,-936.47 448.57,-922.87"/>
<polygon fill="#000000" fill-opacity="0.200000" stroke="#000000" stroke-width="2" stroke-opacity="0.200000" points="450.08,-924.33 452.31,-918.38 446.85,-921.65 450.08,-924.33"/>
</g>
<!-- src/components/ui/button.tsx -->
<g id="node40" class="node">
<title>src/components/ui/button.tsx</title>
<g id="a_node40"><a xlink:href="src/components/ui/button.tsx" xlink:title="button.tsx">
<path fill="#bbfeff" stroke="black" d="M484.46,-1221.88C484.46,-1221.88 441.29,-1221.88 441.29,-1221.88 438.33,-1221.88 435.38,-1218.92 435.38,-1215.96 435.38,-1215.96 435.38,-1210.04 435.38,-1210.04 435.38,-1207.08 438.33,-1204.12 441.29,-1204.12 441.29,-1204.12 484.46,-1204.12 484.46,-1204.12 487.42,-1204.12 490.38,-1207.08 490.38,-1210.04 490.38,-1210.04 490.38,-1215.96 490.38,-1215.96 490.38,-1218.92 487.42,-1221.88 484.46,-1221.88"/>
<text text-anchor="start" x="443.38" y="-1209.33" font-family="Helvetica,sans-Serif" font-size="9.00">button.tsx</text>
</a>
</g>
</g>
<!-- src/components/ui/button.tsx&#45;&gt;src/lib/utils.ts -->
<g id="edge39" class="edge">
<title>src/components/ui/button.tsx&#45;&gt;src/lib/utils.ts</title>
<path fill="none" stroke="#000000" stroke-width="2" stroke-opacity="0.200000" d="M490.7,-1213C502.23,-1213 515.87,-1213 528.17,-1213"/>
<polygon fill="#000000" fill-opacity="0.200000" stroke="#000000" stroke-width="2" stroke-opacity="0.200000" points="527.81,-1215.1 533.81,-1213 527.81,-1210.9 527.81,-1215.1"/>
</g>
</g>
</svg>
